<mxfile host="app.diagrams.net" agent="Mozilla/5.0 (Windows NT 10.0; Win64; x64) AppleWebKit/537.36 (KHTML, like Gecko) Chrome/131.0.0.0 Safari/537.36" version="26.0.7">
  <diagram name="Page-1" id="u-CFlndx7MDW8c2zgcl0">
    <mxGraphModel dx="1050" dy="522" grid="1" gridSize="10" guides="1" tooltips="1" connect="1" arrows="1" fold="1" page="1" pageScale="1" pageWidth="850" pageHeight="1100" math="0" shadow="0">
      <root>
        <mxCell id="0" />
        <mxCell id="1" parent="0" />
        <mxCell id="DjJd-rvZ94G0Ebn8zLqo-5" style="rounded=0;orthogonalLoop=1;jettySize=auto;html=1;exitX=0;exitY=1;exitDx=0;exitDy=0;entryX=0.5;entryY=0;entryDx=0;entryDy=0;" edge="1" parent="1" source="DjJd-rvZ94G0Ebn8zLqo-1" target="DjJd-rvZ94G0Ebn8zLqo-2">
          <mxGeometry relative="1" as="geometry" />
        </mxCell>
        <mxCell id="DjJd-rvZ94G0Ebn8zLqo-6" style="edgeStyle=orthogonalEdgeStyle;rounded=0;orthogonalLoop=1;jettySize=auto;html=1;exitX=0.5;exitY=1;exitDx=0;exitDy=0;entryX=0.5;entryY=0;entryDx=0;entryDy=0;" edge="1" parent="1" source="DjJd-rvZ94G0Ebn8zLqo-1" target="DjJd-rvZ94G0Ebn8zLqo-3">
          <mxGeometry relative="1" as="geometry" />
        </mxCell>
        <mxCell id="DjJd-rvZ94G0Ebn8zLqo-7" style="rounded=0;orthogonalLoop=1;jettySize=auto;html=1;exitX=1;exitY=1;exitDx=0;exitDy=0;entryX=0.5;entryY=0;entryDx=0;entryDy=0;" edge="1" parent="1" source="DjJd-rvZ94G0Ebn8zLqo-1" target="DjJd-rvZ94G0Ebn8zLqo-4">
          <mxGeometry relative="1" as="geometry" />
        </mxCell>
        <mxCell id="DjJd-rvZ94G0Ebn8zLqo-1" value="Mario Moncayo&lt;div&gt;Líder de la startup&lt;/div&gt;" style="ellipse;whiteSpace=wrap;html=1;fillColor=#dae8fc;strokeColor=#6c8ebf;" vertex="1" parent="1">
          <mxGeometry x="290" y="30" width="200" height="90" as="geometry" />
        </mxCell>
        <mxCell id="DjJd-rvZ94G0Ebn8zLqo-2" value="Atención al Cliente&lt;div&gt;(Gestión de Instagram y pagos)&lt;/div&gt;" style="rounded=1;whiteSpace=wrap;html=1;fillColor=#fff2cc;strokeColor=#d6b656;" vertex="1" parent="1">
          <mxGeometry x="75" y="210" width="190" height="60" as="geometry" />
        </mxCell>
        <mxCell id="DjJd-rvZ94G0Ebn8zLqo-3" value="Producción&lt;div&gt;(Transformación, Impresión y Ensamblado)&lt;/div&gt;" style="rounded=1;whiteSpace=wrap;html=1;fillColor=#fff2cc;strokeColor=#d6b656;" vertex="1" parent="1">
          <mxGeometry x="295" y="210" width="190" height="60" as="geometry" />
        </mxCell>
        <mxCell id="DjJd-rvZ94G0Ebn8zLqo-4" value="Logística&lt;div&gt;(Coordinación de envíos)&lt;/div&gt;" style="rounded=1;whiteSpace=wrap;html=1;fillColor=#fff2cc;strokeColor=#d6b656;" vertex="1" parent="1">
          <mxGeometry x="515" y="210" width="190" height="60" as="geometry" />
        </mxCell>
      </root>
    </mxGraphModel>
  </diagram>
</mxfile>
